<?xml version="1.0" encoding="utf-8"?>
<?xml-stylesheet type="text/xsl" href="rss1.xsl"?>
<rss version="2.0" xmlns:atom="http://www.w3.org/2005/Atom" xmlns:content="http://purl.org/rss/1.0/modules/content/" xmlns:dc="http://purl.org/dc/elements/1.1/" xmlns:media="http://search.yahoo.com/mrss/">
<channel>
 <title>Getty</title>
 <link>http://www.gettyimg.com/</link>
 <atom:link href="http://www.gettyimg.com/" rel="self" type="application/rss+xml" />

 
                <item>
                <title><![CDATA[【PRORES SD】Jonas Brothers - Poor Unfortunate Souls (Pro-Res) [540p PCM Audio]]]></title>
                <link><![CDATA[https://sharemania.us/threads/jonas-brothers-poor-unfortunate-souls-pro-res-540p-pcm-audio.222249/]]></link>
                <description><![CDATA[<article>
<blockquote class="messageText SelectQuoteContainer ugc baseHtml">
<div style="text-align: center"><img src="https://i.ytimg.com/vi/BJE7cdhsq2g/hqdefault.jpg" class="bbCodeImage LbImage" alt="[​IMG]" data-url="https://i.ytimg.com/vi/BJE7cdhsq2g/hqdefault.jpg" style=""><br>
<div class="ToggleTriggerAnchor bbCodeSpoilerContainer">
<button type="button" class="button bbCodeSpoilerButton ToggleTrigger Tooltip JsOnly" data-target="> .SpoilerTarget"><span>Spoiler: <span class="SpoilerTitle">Codec</span></span></button>
<div class="SpoilerTarget bbCodeSpoilerText">Format : MPEG-4<br>
Format profile : QuickTime<br>
Codec ID : qt<br>
File size : 848 MiB<br>
Duration : 2mn 32s<br>
Overall bit rate : 46.8 Mbps<br>
Movie name : Poor Unfortunate Souls (Pro-Res) [540p PCM Audio]<br>
Writing library : Apple QuickTime Cover<br>
<br>
iMovie Video ID : 2<br>
Format : apcn<br>
Codec ID : apcn<br>
Duration : 2mn 32s<br>
Bit rate mode : Variable<br>
Bit rate : 44.4 Mbps<br>
Width : 960 pixels Height : 540 pixels<br>
Display aspect ratio : 16:9<br>
Frame rate mode : Constant<br>
Frame rate : 29.970 fps Bits/(Pixel*Frame) : 2.861<br>
Stream size : 806 MiB (95%)<br>
<br>
<br>
Audio ID : 1<br>
Format : lpcm<br>
Codec ID : lpcm<br>
Duration : 2mn 32s<br>
Bit rate mode : Constant<br>
Bit rate : 2 304 Kbps<br>
Channel(s) : 3 channels<br>
Sampling rate : 1 Hz<br>
Resolution : 16 bits<br>
Stream size : 41.8 MiB (5%)<br>
Title : Core Media Audio Language : English</div>
</div><br>
<div class="bbCodeBlock bbCodeVfcHH HiddenContent">
<div class="attribution type">Hidden Content:</div>
<blockquote>You must either reply or click 'Like' to see the hidden information contained here.</blockquote>
</div></div>
<div class="messageTextEndMarker">&nbsp;</div>
</blockquote>
</article>]]></description>
                <author><![CDATA[curtisrice04]]></author>
                </item>

                </channel></rss>